<?xml version="1.0" encoding="UTF-8" standalone="no"?>
<svg
   width="456"
   height="456"
   viewBox="0 0 456 456"
   version="1.1"
   xml:space="preserve"
   style="fill-rule:evenodd;clip-rule:evenodd;stroke-linejoin:round;stroke-miterlimit:2;"
   id="svg229"
   sodipodi:docname="splash.svg"
   inkscape:version="1.2 (dc2aedaf03, 2022-05-15)"
   xmlns:inkscape="http://www.inkscape.org/namespaces/inkscape"
   xmlns:sodipodi="http://sodipodi.sourceforge.net/DTD/sodipodi-0.dtd"
   xmlns="http://www.w3.org/2000/svg"
   xmlns:svg="http://www.w3.org/2000/svg"><defs
   id="defs233" /><sodipodi:namedview
   id="namedview231"
   pagecolor="#ffffff"
   bordercolor="#000000"
   borderopacity="0.25"
   inkscape:showpageshadow="2"
   inkscape:pageopacity="0.0"
   inkscape:pagecheckerboard="0"
   inkscape:deskcolor="#d1d1d1"
   showgrid="false"
   inkscape:zoom="0.90899123"
   inkscape:cx="174.91918"
   inkscape:cy="242.02654"
   inkscape:window-width="1920"
   inkscape:window-height="1009"
   inkscape:window-x="-8"
   inkscape:window-y="-8"
   inkscape:window-maximized="1"
   inkscape:current-layer="svg229" />
    
    
    
    
<path
   style="clip-rule:evenodd;fill:#aa0000;fill-rule:evenodd;stroke-width:0.115298;stroke-linejoin:round;stroke-miterlimit:2"
   d="m 270.63133,371.82416 c -0.57643,-0.15255 -1.8216,-0.59474 -2.76713,-0.9827 -5.43303,-2.22919 -5.97408,-2.41855 -6.90973,-2.41855 -0.25994,0 -0.57325,0.0761 -0.69641,0.16929 -0.28993,0.2193 -1.12484,0.22337 -1.54225,0.007 -0.56308,-0.29118 -1.18758,-1.12554 -2.08282,-2.7827 -1.47768,-2.73538 -2.57298,-4.2653 -4.18043,-5.83918 -3.0922,-3.02772 -7.34393,-5.37244 -12.99566,-7.16682 -0.91776,-0.29137 -1.84517,-0.52976 -2.06089,-0.52976 -0.21573,0 -1.04735,0.13203 -1.84797,0.29339 -6.37418,1.28464 -10.09299,3.60524 -12.33592,7.69781 -0.24987,0.45598 -0.79519,1.61923 -1.21178,2.585 -0.8884,2.05953 -1.25132,2.79638 -1.69926,3.44985 -0.81723,1.19225 -2.09223,2.12939 -3.52828,2.5933 -0.69057,0.22312 -0.92933,0.23916 -2.67269,0.17948 -2.86777,-0.0982 -4.84123,-0.59704 -7.56392,-1.91215 -1.37512,-0.66423 -2.20895,-1.15061 -6.03291,-3.51915 -2.49801,-1.5472 -3.96896,-2.32148 -5.69775,-2.99909 l -1.35383,-0.53065 -1.00975,0.11511 c -2.03299,0.23174 -3.53957,0.81509 -6.74393,2.61114 -6.0001,3.36304 -8.47812,4.46316 -13.00164,5.77214 -1.49084,0.43141 -1.89832,0.50763 -2.45777,0.45979 -1.7988,-0.15384 -2.32329,-1.34879 -2.61509,-5.95801 -0.16047,-2.53519 -0.28456,-3.46656 -0.64496,-4.84106 -0.45473,-1.73457 -0.95273,-2.5955 -2.40953,-4.16588 -5.41339,-5.83522 -12.54569,-9.9403 -22.02266,-12.67534 -6.25483,-1.80512 -12.41334,-2.80636 -22.65632,-3.68342 -5.22374,-0.44728 -6.68721,-0.68763 -6.68721,-1.09823 0,-0.0765 -0.21217,-0.27951 -0.47146,-0.45109 -0.86653,-0.57345 -1.31856,-2.0526 -0.98155,-3.21187 0.26531,-0.91255 0.7294,-1.28581 1.81796,-1.4622 4.86779,-0.78869 7.76351,-3.94829 8.50514,-9.28004 0.17133,-1.23221 0.14981,-3.80689 -0.0439,-5.24985 -1.09828,-8.17784 -5.95454,-15.87906 -11.78025,-18.6814 -2.00809,-0.96596 -4.08541,-1.34856 -6.18981,-1.14006 l -1.24599,0.12345 -0.59876,-0.46201 c -0.32929,-0.25409 -1.38026,-1.25689 -2.335508,-2.22842 -5.908746,-6.0095 -11.45383,-14.00982 -13.03601,-18.80818 -0.38116,-1.15611 -0.426597,-1.42266 -0.436021,-2.55881 -0.0074,-0.95155 0.03982,-1.39875 0.191227,-1.79076 l 0.201694,-0.5225 3.660793,0.004 c 2.981864,0.003 3.904589,-0.0349 4.975618,-0.2047 4.602817,-0.72938 8.125777,-2.36766 10.948517,-5.09136 3.29309,-3.17757 5.20619,-7.33748 5.96712,-12.97495 0.23923,-1.77257 0.26952,-5.92658 0.0573,-7.84023 -0.49327,-4.44458 -1.70557,-9.14942 -3.25309,-12.62507 -0.31058,-0.69756 -0.56472,-1.32985 -0.56472,-1.40512 0,-0.0753 0.25637,-0.66104 0.56969,-1.30174 1.83873,-3.76008 0.94308,-6.41951 -2.93396,-8.71169 -0.50496,-0.29854 -1.64529,-0.93391 -2.53404,-1.41194 -3.840909,-2.0658 -4.78615,-3.04324 -4.978541,-5.14833 -0.11543,-1.26354 0.376957,-3.00056 1.034951,-3.65094 0.202156,-0.19978 1.11986,-0.87218 2.03937,-1.49419 5.41624,-3.66391 8.87353,-7.3923 9.64416,-10.4004 0.90846,-3.54587 -2.07375,-6.48366 -7.82836,-7.71183 -1.74271,-0.37194 -4.680887,-0.37689 -5.70343,-0.01 -0.394381,0.14164 -0.835363,0.25732 -0.980044,0.25708 -0.449925,-9.3e-4 -0.967867,-0.41108 -1.247159,-0.98797 -0.332859,-0.68765 -0.438293,-2.45046 -0.231637,-3.87323 0.193037,-1.32865 0.827823,-3.74581 1.32301,-5.03773 l 0.413616,-1.07908 -0.38274,-0.70803 c -0.210517,-0.38939 -0.788808,-1.40843 -1.285112,-2.26451 -1.40628,-2.42565 -1.94136,-3.83925 -1.94136,-5.12865 0,-0.84597 0.209649,-1.36781 0.743204,-1.84983 0.413903,-0.37397 0.513609,-0.41292 0.880735,-0.34405 0.669229,0.12554 1.417164,0.55595 4.416036,2.54126 4.657381,3.08332 6.585581,4.11605 9.705451,5.1982 9.19243,3.18845 16.97406,-1.13925 22.98439,-12.7826 0.73244,-1.4189 0.77168,-1.47005 1.12781,-1.47005 0.41163,0 1.08185,0.39041 2.24457,1.30751 1.28541,1.01385 1.97258,1.46705 2.91695,1.92375 2.43012,1.17516 4.38855,0.79244 6.45237,-1.26096 0.83208,-0.82783 1.02582,-1.09154 1.17757,-1.60259 0.39186,-1.31946 -0.18449,-2.25412 -2.48275,-4.02614 -0.72665,-0.56028 -1.1881,-1.00775 -1.32178,-1.28183 -0.31889,-0.65355 -0.32853,-1.91473 -0.0298,-3.87999 0.49403,-3.25059 0.31778,-5.48071 -0.58577,-7.41165 -0.9115,-1.94802 -2.84303,-4.00233 -5.21643,-5.54812 -2.0058,-1.3064 -2.00048,-1.30125 -2.55959,-2.47314 -1.18401,-2.48172 -1.82224,-5.54163 -1.44172,-6.91199 0.1335,-0.48073 0.55033,-0.80646 1.29155,-1.0093 0.62647,-0.17144 2.99139,-0.14179 4.91029,0.0616 0.91045,0.0965 2.18276,0.17543 2.82743,0.17543 1.14681,0 1.1878,-0.009 1.90012,-0.43068 0.40041,-0.23687 1.13454,-0.80835 1.63143,-1.26995 1.61991,-1.50489 2.56901,-2.95852 4.94965,-7.58082 2.94848,-5.72476 5.0065,-9.04394 7.97666,-12.8649 1.42909,-1.83842 3.82126,-4.62307 4.53469,-5.27867 0.538,-0.49437 0.55911,-0.50219 1.22635,-0.45393 0.52332,0.0379 0.7915,0.12972 1.17026,0.4009 0.67584,0.48391 1.49032,1.51566 2.05838,2.60753 l 0.47642,0.91573 0.0263,2.49418 c 0.0228,2.18132 0.0586,2.60986 0.28438,3.41654 0.71665,2.55954 2.30931,4.22316 4.73703,4.94825 1.03237,0.30834 2.57373,0.51415 4.84235,0.6466 2.32327,0.13562 2.71192,0.21441 3.23694,0.65615 1.32751,1.11707 1.69089,4.62934 0.68326,6.60446 -0.20684,0.40551 -0.40631,0.54261 -1.86932,1.28496 -3.32016,1.68466 -5.84401,3.74858 -6.67499,5.45844 -0.35643,0.73353 -0.39134,0.89807 -0.39134,1.84477 0,0.92132 0.0362,1.10512 0.32076,1.61783 1.37424,2.4782 5.12678,4.58443 11.68347,6.55778 3.46033,1.04145 4.30803,1.18334 5.65969,0.94737 3.52314,-0.61506 6.85721,-3.84173 10.23931,-9.90955 2.37315,-4.25766 4.85924,-10.58864 6.57242,-16.73693 0.46004,-1.6511 0.66173,-2.01404 1.78252,-3.20791 1.30705,-1.3923 2.90169,-2.34628 4.78773,-2.8643 0.78694,-0.21613 1.21875,-0.25333 2.94011,-0.25333 2.87333,0 3.93687,0.21563 9.85796,1.99865 4.93661,1.48657 5.64525,1.56089 8.35905,0.87678 3.88213,-0.97862 6.0453,-1.74561 8.82026,-3.12731 2.86964,-1.42884 4.85615,-2.94515 6.61477,-5.04908 1.16482,-1.39354 1.88212,-2.47977 3.70482,-5.6105 2.00762,-3.44835 3.12162,-5.10955 4.53013,-6.7551 1.14074,-1.33278 2.76485,-2.91639 3.84775,-3.75186 0.63104,-0.48681 0.68121,-0.50396 1.47476,-0.50396 0.98133,0 1.27875,0.13624 3.54484,1.62398 1.82679,1.1993 3.51254,2.03199 4.76725,2.35481 5.21913,1.34286 11.40033,-1.36085 19.32968,-8.45497 0.83986,-0.7514 1.37505,-1.14186 1.67633,-1.22299 0.59689,-0.16071 1.43172,-0.0113 2.85479,0.51085 4.23084,1.55246 4.99457,1.73213 7.32136,1.7224 1.40587,-0.005 1.86708,-0.0555 2.89923,-0.31195 4.87217,-1.21049 10.02035,-5.40938 15.22964,-12.42144 1.78283,-2.39983 2.19036,-2.76714 3.06993,-2.76714 0.36549,0 0.51455,0.0688 0.74677,0.34473 0.48537,0.57685 0.56063,1.29131 0.42648,4.04792 -0.46046,9.46132 -1.57668,14.59374 -4.01886,18.47944 -0.87495,1.39202 -1.62177,2.3054 -3.78301,4.62637 -2.23258,2.39768 -3.28232,3.60615 -4.27627,4.92288 -0.9622,1.27466 -2.55357,3.69325 -3.30513,5.02315 -0.71355,1.26267 -2.34288,4.53372 -2.95005,5.92272 -0.57718,1.32037 -0.99255,1.8585 -1.71558,2.22262 -0.90886,0.45769 -1.62849,0.54796 -4.05259,0.50832 -4.03651,-0.066 -5.42642,-0.028 -6.39904,0.17499 -1.73259,0.3616 -3.28822,1.35377 -4.10931,2.62089 -0.20263,0.31274 -0.4121,0.56863 -0.46537,0.56863 -0.0532,0 -0.58976,-0.21053 -1.19203,-0.46784 -3.21659,-1.37429 -5.74255,-1.93406 -8.12665,-1.80092 -2.13784,0.11941 -3.85599,0.77717 -5.93782,2.27319 -1.40301,1.00822 -1.91878,1.25862 -2.59415,1.25932 -1.14821,9.2e-4 -2.24919,-0.34806 -6.16723,-1.95621 -4.67042,-1.91696 -7.88993,-1.98826 -11.76154,-0.26046 -2.3624,1.05427 -4.51428,2.64327 -7.22135,5.33243 -2.25913,2.24416 -2.56503,2.70598 -3.14701,4.7508 -0.62308,2.18908 -0.8488,5.72554 -0.53221,8.33728 0.46157,3.80827 1.69464,7.21295 3.38472,9.3455 0.83946,1.05928 1.54014,1.57323 2.58456,1.89583 1.13389,0.35022 1.99206,0.38674 4.20324,0.17886 1.6271,-0.15297 2.22562,-0.16617 2.96216,-0.0653 1.80024,0.2465 3.53623,1.02692 5.44881,2.4496 1.22641,0.91225 1.6502,1.12657 2.22773,1.12657 0.69502,0 1.47857,-0.3885 3.31636,-1.64431 2.69122,-1.83902 3.86336,-2.36167 5.42648,-2.41971 l 0.78238,-0.0291 -0.076,-0.45717 c -0.15139,-0.90926 -0.0795,-4.23517 0.11076,-5.12392 0.25596,-1.19582 0.75583,-2.21076 1.28915,-2.61755 0.38005,-0.28987 0.53648,-0.33338 1.19852,-0.33338 0.69787,0 0.83331,0.0432 1.62311,0.51884 2.11101,1.27101 3.23093,2.35322 3.40706,3.29236 0.0439,0.23339 -0.0599,0.90003 -0.28169,1.81214 -0.39689,1.63173 -0.5939,3.01235 -0.58741,4.11628 0.006,0.72005 0.0205,0.76246 0.37473,0.9846 0.56922,0.35689 1.01787,1.13086 1.81241,3.12662 1.3229,3.32284 2.12849,4.70535 3.50203,6.00997 0.89278,0.84797 2.24287,1.624 3.27238,1.88098 0.55794,0.13927 0.67402,0.12985 1.44032,-0.11696 2.83432,-0.91285 4.91135,-2.44894 5.78975,-4.28193 0.43841,-0.91473 0.64373,-1.76903 0.9243,-3.84516 0.1841,-1.36258 0.54315,-2.48719 0.79379,-2.48643 0.0714,2.6e-4 0.51905,0.15957 0.99465,0.3541 3.06233,1.25261 6.41711,1.52487 11.1839,0.90761 2.41965,-0.31333 3.91704,-0.33121 4.58615,-0.0548 0.40707,0.16819 0.61805,0.38739 1.20915,1.25647 1.00822,1.48225 2.3562,2.80081 3.37087,3.29723 0.67991,0.33266 0.96149,0.40229 1.78709,0.44192 1.04038,0.05 1.39774,-0.0179 4.43896,-0.84297 0.92331,-0.25049 1.91188,-0.43482 2.5745,-0.48006 0.95033,-0.0649 1.09577,-0.10413 1.24839,-0.33709 0.10708,-0.1634 0.25754,-1.02254 0.39572,-2.25914 0.2576,-2.30562 0.52315,-3.4754 1.00601,-4.43197 0.39888,-0.7901 1.2947,-1.67952 1.88925,-1.87575 0.26245,-0.0866 0.43876,-0.22965 0.48204,-0.39106 0.15409,-0.57473 0.0562,-1.9772 -0.22853,-3.27182 -0.42742,-1.9438 -0.48719,-3.61113 -0.17609,-4.911 0.13304,-0.55578 0.38532,-1.34643 0.56069,-1.75702 l 0.31883,-0.74652 2.07539,-9.2e-4 c 3.20075,-0.002 5.33227,0.34301 6.34295,1.02507 l 0.50397,0.34012 1.93785,-1.92905 c 1.06582,-1.06098 2.84583,-2.68145 3.95558,-3.60104 2.66514,-2.20846 5.74151,-4.59976 5.91466,-4.59755 0.2111,0.003 0.37665,0.14202 0.54595,0.45942 0.11374,0.21333 0.1545,0.91758 0.15673,2.70949 0.006,3.30464 -0.17556,4.15817 -1.26185,5.99547 -0.33748,0.57073 -0.72249,1.3658 -0.85559,1.76683 -0.31531,0.94972 -0.57823,2.71853 -0.57911,3.89549 0,0.51431 -0.0333,1.17405 -0.0735,1.46609 -0.0867,0.63257 -0.19889,0.68509 -1.88727,0.8836 -2.05013,0.24104 -4.15481,0.85968 -5.86952,1.72526 -1.13856,0.57476 -3.00846,1.89378 -4.24574,2.99496 -1.25413,1.11614 -3.16163,3.18474 -3.45636,3.74822 -0.41788,0.79908 0,2.09551 0.94284,2.91631 0.86438,0.7534 2.91801,1.52975 4.04664,1.52975 h 0.2807 v 1.47005 c 0,2.1151 -0.3562,3.19853 -1.32336,4.04772 -0.81935,0.7194 -1.72605,1.04831 -4.78604,1.73615 -2.34258,0.52657 -3.60577,0.91008 -4.81936,1.46312 -3.87038,1.76379 -7.00446,5.79078 -8.2794,10.6381 -0.36625,1.39259 -0.5028,3.97546 -0.27719,5.24414 0.41227,2.31863 1.54856,4.55583 3.5808,7.04992 0.36168,0.44389 1.55137,1.76692 2.64374,2.94008 3.69892,3.97247 4.96567,5.95253 4.95819,7.75012 -0.006,1.56111 -0.79309,2.20903 -3.76512,3.1013 -2.43837,0.73204 -3.22443,1.14744 -3.81447,2.01578 -0.27432,0.40364 -0.28667,0.48662 -0.22105,1.48524 0.13543,2.06154 0.83004,3.52139 1.96422,4.12797 0.43841,0.23447 0.61484,0.25322 2.14942,0.22839 1.87991,-0.0304 2.3465,0.0668 2.59117,0.54001 0.21982,0.42505 0.63578,3.29489 0.63654,4.39178 0,0.95208 -0.23076,2.01576 -0.54537,2.50615 -0.11075,0.17273 -0.6025,0.8446 -1.09266,1.49305 -1.0194,1.34852 -1.73417,2.76357 -2.31644,4.58588 -0.60735,1.90092 -1.28963,5.154 -1.52728,7.28225 l -0.0794,0.71028 -0.81589,0.0819 c -2.54889,0.25599 -4.07265,1.68703 -4.53867,4.26237 -0.21807,1.20542 -0.0602,2.88151 0.37917,4.02663 0.0544,0.14157 -0.0462,0.13214 -0.57583,-0.054 -0.82372,-0.28951 -1.14594,-0.28406 -1.70264,0.0288 -0.34498,0.19389 -0.54053,0.43313 -0.82279,1.00666 l -0.37023,0.75232 v 2.07754 c 0,1.86931 0.0339,2.2013 0.31362,3.31195 0.33583,1.33305 0.8408,2.55787 1.30599,3.1678 0.24064,0.31546 0.36911,0.38266 0.73168,0.38266 0.71981,0 1.2564,0.55912 1.4385,1.49888 0.0432,0.22194 0.0164,1.31356 -0.0593,2.4258 -0.1586,2.33096 -0.055,3.55038 0.43449,5.1017 1.00068,3.17284 3.65401,6.19085 7.91865,9.00694 l 1.29804,0.85713 2.71677,0.14605 c 4.34576,0.23364 7.2758,-0.0809 9.8944,-1.06218 5.16234,-1.9345 8.50542,-6.5864 11.0115,-15.32247 0.54355,-1.89494 1.42453,-5.60496 1.79511,-7.55983 l 0.13262,-0.69963 0.50584,-0.0262 c 0.56888,-0.0295 0.92647,0.11709 1.01618,0.41646 0.0334,0.11106 0.24555,1.48514 0.47163,3.05353 0.68576,4.75732 1.53025,8.74261 2.31555,10.92831 0.45666,1.27082 1.10045,2.48424 1.8168,3.42435 0.71467,0.9378 0.887,1.49108 0.88285,2.83434 0,0.83119 -0.28613,4.10273 -0.36116,4.16644 -0.0216,0.0186 -1.13922,0.58866 -2.48293,1.26677 -4.35931,2.19999 -7.81438,4.30128 -10.18029,6.19151 -0.66496,0.53122 -2.18714,1.9121 -3.38267,3.06861 -3.09367,2.99282 -4.94251,4.4162 -8.57729,6.60366 -2.32252,1.39772 -4.9703,4.08419 -6.01653,6.10448 -0.56659,1.09417 -0.75629,1.74035 -0.99003,3.37301 -0.34742,2.42679 -0.84033,3.40957 -2.50837,5.00098 -1.26477,1.20665 -2.74192,2.23677 -4.29581,2.99569 -1.83884,0.89814 -2.24392,0.9827 -5.18835,1.08322 -2.85187,0.0974 -3.20543,0.17946 -4.57107,1.06114 -1.24506,0.80382 -3.26519,3.01577 -4.75106,5.20221 -0.61893,0.91081 -1.04869,2.18644 -1.57382,4.67154 -0.40708,1.92625 -1.03735,5.67752 -1.03735,6.17372 0,0.18876 0.18316,1.16331 0.40701,2.16564 0.88197,3.94936 1.30634,6.74912 1.39575,9.20833 l 0.065,1.78712 -0.40132,0.26491 c -0.6773,0.44704 -2.50808,1.03346 -6.18747,1.982 -1.9375,0.49948 -4.37885,1.17556 -5.42514,1.5024 -10.06696,3.14458 -16.71804,8.34784 -21.07232,16.48542 -2.04235,3.81682 -3.73763,9.33445 -4.41037,14.35454 -0.10204,0.76171 -0.20462,1.11062 -0.38561,1.31196 -0.58986,0.65607 -1.66744,0.7527 -3.36998,0.30217 z m -47.43464,-33.6655 c 28.82635,-2.40797 55.89626,-18.03073 71.22357,-41.10495 7.65578,-11.5253 11.9775,-23.97353 13.12934,-37.81759 0.26398,-3.17239 0.26485,-9.1863 0,-12.56743 -0.99857,-12.83928 -3.46547,-23.71954 -7.66672,-33.81442 -6.52792,-15.68534 -17.24124,-28.42495 -31.56928,-37.54014 -13.02982,-8.28933 -29.0888,-13.51643 -45.92584,-14.9486 -3.00911,-0.25596 -9.16535,-0.35191 -11.52974,-0.17969 -15.17217,1.1051 -32.3361,7.92068 -46.33666,18.3997 -20.23661,15.14657 -32.25944,36.14348 -34.42915,60.12761 -0.44981,4.97242 -0.51238,15.03426 -0.12169,19.5756 1.44237,16.76721 7.31778,31.82075 17.51504,44.87574 12.38685,15.85821 30.86496,27.84412 50.49878,32.75625 5.34339,1.33686 9.36534,1.97064 15.58315,2.45562 1.22804,0.0958 7.59935,-0.0483 9.62738,-0.2177 z M 361.01487,231.23275 c -1.7109,-1.23935 -3.9226,-6.38549 -3.70419,-8.61861 0.0444,-0.45582 0.17047,-0.71337 0.6687,-1.36856 0.7504,-0.98686 1.11203,-1.74359 1.90744,-3.99154 0.71139,-2.01032 1.14647,-2.7954 1.96663,-3.5484 0.72208,-0.66294 1.98568,-1.30112 2.71502,-1.3712 1.085,-0.10426 2.14334,0.72306 2.26106,1.76753 0.0503,0.44634 -0.0169,0.68496 -0.46198,1.64226 -1.15395,2.48148 -1.66809,4.6361 -2.39673,10.04441 -0.48758,3.61901 -0.82764,4.99376 -1.36926,5.53536 -0.35859,0.35863 -1.01805,0.3207 -1.58669,-0.0913 z"
   id="path203" /></svg>
